<svg version="1.0" xmlns="http://www.w3.org/2000/svg" width="773.333" height="773.333" viewBox="0 0 580 580"><path d="M280 9.9c-2.5 1.4-8.9 2.3-19 2.6-25.4.7-61.3 16.3-82.8 36-8 7.4-20.1 22.9-27.5 35.4-5.1 8.6-12.1 24.4-16.8 37.8-3.9 11.4-11.6 41-13.3 51.8-.8 4.9-2.6 14.8-4 22-1.4 7.1-4.1 23.7-6.1 36.7-4 26.5-5.3 30.4-17.7 54.8-12.2 23.8-17.2 44.5-13.4 55.6 2.2 6.6 5.8 11.5 11.1 15.3l4.5 3.2-4.7 9.2c-4.9 9.6-13.7 21.9-19.5 27.4-1.8 1.7-6.2 4.9-9.8 7.1-7.1 4.3-8.9 7.2-4.5 7.2 1.4 0 3.1-.4 3.8-1 .7-.5 4.1-3.1 7.7-5.7 8-5.9 18.1-19 25.1-32.6 2.7-5.3 5.4-9.7 5.9-9.7.6 0 3.3.9 6.2 2 6 2.3 9.1 2.5 13.6.9 4.8-1.6 6.2-.5 1.9 1.6C109 373 97.8 396.7 94 424c-1.4 9.8-1.4 30.4.1 48.9.9 12.9.9 15.9-.6 23.2-3 14.9-6.4 27.4-9.5 34.7-1.6 3.9-3 8.5-3 10.2 0 3.2 2.4 8.6 8.4 18.4 2 3.3 3.6 7 3.6 8.2 0 1.2.8 3.1 1.7 4.2 1.8 2 2.2 2.1 17.3 1 16.4-1.1 34.4-1.2 159-.8 109.1.3 196.2-1.1 198.7-3.2.7-.6 1.3-1.8 1.3-2.8 0-1 1.6-6.6 3.5-12.4 4.2-12.7 4.3-14.8 1-22.1-1.3-3.1-3.4-10-4.5-15.4-2-9-2-11-1.1-25.4 1.1-15.5.4-40.5-1.9-71.7-1.7-23.4-6.3-34.6-17.3-42.6l-2.9-2 4.1-2.7c6.8-4.5 11-15.4 9.3-24.4-.7-4.2-.6-5.7 1-8.8 3.5-6.7 4.9-12.8 5.5-23.5.8-15.9-1.4-26.6-13.7-64.5-6.7-20.7-10.7-38-15-64.5-1.2-7.4-3.8-20.3-5.7-28.5-1.9-8.3-5-21.4-6.9-29.3-6.3-26.9-15.3-45.3-35.5-72.2-8.3-11-16.3-18.5-29.9-27.6-13.8-9.2-26.9-14.2-46-17.5-8.4-1.4-33.1-2.2-35-1zM457.6 296c3.8 16.4 4.6 39 1.4 39-.6 0-1-.7-1-1.6 0-2-7.2-17.5-9.9-21.3-1.8-2.5-1.9-3.4-1-5.8 2.4-6.3 4-15.8 4.1-24.6l.1-9.2 1.8 6c1.1 3.3 3.1 11.2 4.5 17.5zm-342.1 15.2c-.6 8 1.3 28.5 3.4 36.4.8 2.8.6 3.3-1.6 4.3-3.7 1.7-13.9 2.6-14.7 1.3-.3-.6.3-4.4 1.4-8.4 2.1-7.4 6-28.4 6-32 0-1.7 4.8-9.7 5.8-9.8.2 0 .1 3.7-.3 8.2zm333.9 9c1.9 4 4.2 9.9 5.2 13.1 1.6 5.3 1.7 6.1.3 8.5-1.5 2.7-9.7 8.2-14.9 10.1l-2.8.9 1.3-3.1c1.4-3.6 4-18.6 5-29.5.4-3.9 1.1-7.2 1.6-7.2.4 0 2.4 3.3 4.3 7.2zM105 324.7c-1.4 8-4.6 21.2-6 24.8l-1 2.6-3.1-2.2c-2.8-2-3.1-2.6-2.7-6.4.3-2.3 1.7-6.7 3-9.7 3.2-6.9 9.7-17.2 10.5-16.5.3.4 0 3.7-.7 7.4zm352.5 29.5c-.4 2.9-1.4 6.8-2.3 8.6-3.2 6.9-14.3 11.2-17.6 6.7-1.2-1.7-1-2 2.5-3.8 3.8-1.8 15.9-13.9 15.9-15.7 0-.6.5-1 1.1-1 .7 0 .9 1.7.4 5.2z"/></svg>